<?xml version="1.0" encoding="UTF-8" standalone="no"?>
<!DOCTYPE svg PUBLIC "-//W3C//DTD SVG 1.1//EN"
 "http://www.w3.org/Graphics/SVG/1.1/DTD/svg11.dtd">
<!-- Generated by graphviz version 2.42.3 (20191010.1750)
 -->
<!-- Title: snakemake_dag Pages: 1 -->
<svg width="304pt" height="260pt"
 viewBox="0.00 0.00 303.50 260.00" xmlns="http://www.w3.org/2000/svg" xmlns:xlink="http://www.w3.org/1999/xlink">
<g id="graph0" class="graph" transform="scale(1 1) rotate(0) translate(4 256)">
<title>snakemake_dag</title>
<polygon fill="white" stroke="transparent" points="-4,4 -4,-256 299.5,-256 299.5,4 -4,4"/>
<!-- 0 -->
<g id="node1" class="node">
<title>0</title>
<path fill="none" stroke="#88d856" stroke-width="2" d="M179,-36C179,-36 107,-36 107,-36 101,-36 95,-30 95,-24 95,-24 95,-12 95,-12 95,-6 101,0 107,0 107,0 179,0 179,0 185,0 191,-6 191,-12 191,-12 191,-24 191,-24 191,-30 185,-36 179,-36"/>
<text text-anchor="middle" x="143" y="-15.5" font-family="sans" font-size="10.00">make_summary</text>
</g>
<!-- 1 -->
<g id="node2" class="node">
<title>1</title>
<path fill="none" stroke="#d85656" stroke-width="2" d="M84,-108C84,-108 12,-108 12,-108 6,-108 0,-102 0,-96 0,-96 0,-84 0,-84 0,-78 6,-72 12,-72 12,-72 84,-72 84,-72 90,-72 96,-78 96,-84 96,-84 96,-96 96,-96 96,-102 90,-108 84,-108"/>
<text text-anchor="middle" x="48" y="-87.5" font-family="sans" font-size="10.00">make_rulegraph</text>
</g>
<!-- 1&#45;&gt;0 -->
<g id="edge2" class="edge">
<title>1&#45;&gt;0</title>
<path fill="none" stroke="grey" stroke-width="2" d="M71.48,-71.7C83.56,-62.8 98.45,-51.82 111.52,-42.2"/>
<polygon fill="grey" stroke="grey" stroke-width="2" points="113.81,-44.85 119.79,-36.1 109.66,-39.22 113.81,-44.85"/>
</g>
<!-- 2 -->
<g id="node3" class="node">
<title>2</title>
<path fill="none" stroke="#56d88a" stroke-width="2" d="M206.5,-252C206.5,-252 141.5,-252 141.5,-252 135.5,-252 129.5,-246 129.5,-240 129.5,-240 129.5,-228 129.5,-228 129.5,-222 135.5,-216 141.5,-216 141.5,-216 206.5,-216 206.5,-216 212.5,-216 218.5,-222 218.5,-228 218.5,-228 218.5,-240 218.5,-240 218.5,-246 212.5,-252 206.5,-252"/>
<text text-anchor="middle" x="174" y="-231.5" font-family="sans" font-size="10.00">count_variants</text>
</g>
<!-- 2&#45;&gt;0 -->
<g id="edge3" class="edge">
<title>2&#45;&gt;0</title>
<path fill="none" stroke="grey" stroke-width="2" d="M160.85,-215.91C154.08,-206.01 146.51,-192.96 143,-180 130.65,-134.43 134.6,-78.91 138.71,-46.4"/>
<polygon fill="grey" stroke="grey" stroke-width="2" points="142.21,-46.69 140.09,-36.31 135.27,-45.74 142.21,-46.69"/>
</g>
<!-- 3 -->
<g id="node4" class="node">
<title>3</title>
<path fill="none" stroke="#56c1d8" stroke-width="2" d="M283.5,-180C283.5,-180 164.5,-180 164.5,-180 158.5,-180 152.5,-174 152.5,-168 152.5,-168 152.5,-156 152.5,-156 152.5,-150 158.5,-144 164.5,-144 164.5,-144 283.5,-144 283.5,-144 289.5,-144 295.5,-150 295.5,-156 295.5,-156 295.5,-168 295.5,-168 295.5,-174 289.5,-180 283.5,-180"/>
<text text-anchor="middle" x="224" y="-159.5" font-family="sans" font-size="10.00">compute_barcode_escape</text>
</g>
<!-- 2&#45;&gt;3 -->
<g id="edge5" class="edge">
<title>2&#45;&gt;3</title>
<path fill="none" stroke="grey" stroke-width="2" d="M186.36,-215.7C192.23,-207.47 199.37,-197.48 205.84,-188.42"/>
<polygon fill="grey" stroke="grey" stroke-width="2" points="208.82,-190.28 211.78,-180.1 203.12,-186.21 208.82,-190.28"/>
</g>
<!-- 3&#45;&gt;0 -->
<g id="edge1" class="edge">
<title>3&#45;&gt;0</title>
<path fill="none" stroke="grey" stroke-width="2" d="M207.96,-143.77C199.25,-133.82 188.71,-120.79 181,-108 169,-88.09 158.87,-63.7 152.09,-45.49"/>
<polygon fill="grey" stroke="grey" stroke-width="2" points="155.38,-44.29 148.68,-36.08 148.8,-46.67 155.38,-44.29"/>
</g>
<!-- 4 -->
<g id="node5" class="node">
<title>4</title>
<path fill="none" stroke="#d8bc56" stroke-width="2" d="M277.5,-108C277.5,-108 202.5,-108 202.5,-108 196.5,-108 190.5,-102 190.5,-96 190.5,-96 190.5,-84 190.5,-84 190.5,-78 196.5,-72 202.5,-72 202.5,-72 277.5,-72 277.5,-72 283.5,-72 289.5,-78 289.5,-84 289.5,-84 289.5,-96 289.5,-96 289.5,-102 283.5,-108 277.5,-108"/>
<text text-anchor="middle" x="240" y="-87.5" font-family="sans" font-size="10.00">homolog_escape</text>
</g>
<!-- 3&#45;&gt;4 -->
<g id="edge6" class="edge">
<title>3&#45;&gt;4</title>
<path fill="none" stroke="grey" stroke-width="2" d="M227.96,-143.7C229.72,-135.98 231.84,-126.71 233.8,-118.11"/>
<polygon fill="grey" stroke="grey" stroke-width="2" points="237.27,-118.63 236.09,-108.1 230.45,-117.07 237.27,-118.63"/>
</g>
<!-- 4&#45;&gt;0 -->
<g id="edge4" class="edge">
<title>4&#45;&gt;0</title>
<path fill="none" stroke="grey" stroke-width="2" d="M216.02,-71.7C203.69,-62.8 188.48,-51.82 175.15,-42.2"/>
<polygon fill="grey" stroke="grey" stroke-width="2" points="176.86,-39.12 166.7,-36.1 172.76,-44.79 176.86,-39.12"/>
</g>
</g>
</svg>
