<?xml version="1.0" encoding="UTF-8" standalone="no"?>
<!DOCTYPE svg PUBLIC "-//W3C//DTD SVG 1.1//EN"
 "http://www.w3.org/Graphics/SVG/1.1/DTD/svg11.dtd">
<!-- Generated by graphviz version 2.42.3 (20191010.1750)
 -->
<!-- Title: snakemake_dag Pages: 1 -->
<svg width="405pt" height="260pt"
 viewBox="0.00 0.00 404.50 260.00" xmlns="http://www.w3.org/2000/svg" xmlns:xlink="http://www.w3.org/1999/xlink">
<g id="graph0" class="graph" transform="scale(1 1) rotate(0) translate(4 256)">
<title>snakemake_dag</title>
<polygon fill="white" stroke="transparent" points="-4,4 -4,-256 400.5,-256 400.5,4 -4,4"/>
<!-- 0 -->
<g id="node1" class="node">
<title>0</title>
<path fill="none" stroke="#d85656" stroke-width="2" d="M198,-36C198,-36 126,-36 126,-36 120,-36 114,-30 114,-24 114,-24 114,-12 114,-12 114,-6 120,0 126,0 126,0 198,0 198,0 204,0 210,-6 210,-12 210,-12 210,-24 210,-24 210,-30 204,-36 198,-36"/>
<text text-anchor="middle" x="162" y="-15.5" font-family="sans" font-size="10.00">make_summary</text>
</g>
<!-- 1 -->
<g id="node2" class="node">
<title>1</title>
<path fill="none" stroke="#56a9d8" stroke-width="2" d="M84,-108C84,-108 12,-108 12,-108 6,-108 0,-102 0,-96 0,-96 0,-84 0,-84 0,-78 6,-72 12,-72 12,-72 84,-72 84,-72 90,-72 96,-78 96,-84 96,-84 96,-96 96,-96 96,-102 90,-108 84,-108"/>
<text text-anchor="middle" x="48" y="-87.5" font-family="sans" font-size="10.00">make_rulegraph</text>
</g>
<!-- 1&#45;&gt;0 -->
<g id="edge5" class="edge">
<title>1&#45;&gt;0</title>
<path fill="none" stroke="grey" stroke-width="2" d="M75.89,-71.88C90.79,-62.72 109.33,-51.34 125.38,-41.48"/>
<polygon fill="grey" stroke="grey" stroke-width="2" points="127.31,-44.41 134.01,-36.19 123.65,-38.44 127.31,-44.41"/>
</g>
<!-- 2 -->
<g id="node3" class="node">
<title>2</title>
<path fill="none" stroke="#56d8a9" stroke-width="2" d="M206.5,-252C206.5,-252 141.5,-252 141.5,-252 135.5,-252 129.5,-246 129.5,-240 129.5,-240 129.5,-228 129.5,-228 129.5,-222 135.5,-216 141.5,-216 141.5,-216 206.5,-216 206.5,-216 212.5,-216 218.5,-222 218.5,-228 218.5,-228 218.5,-240 218.5,-240 218.5,-246 212.5,-252 206.5,-252"/>
<text text-anchor="middle" x="174" y="-231.5" font-family="sans" font-size="10.00">count_variants</text>
</g>
<!-- 2&#45;&gt;0 -->
<g id="edge4" class="edge">
<title>2&#45;&gt;0</title>
<path fill="none" stroke="grey" stroke-width="2" d="M164.46,-215.93C159.36,-205.82 153.61,-192.57 151,-180 141.38,-133.67 149.24,-78.39 155.71,-46.14"/>
<polygon fill="grey" stroke="grey" stroke-width="2" points="159.18,-46.64 157.82,-36.13 152.33,-45.19 159.18,-46.64"/>
</g>
<!-- 3 -->
<g id="node4" class="node">
<title>3</title>
<path fill="none" stroke="#afd856" stroke-width="2" d="M291.5,-180C291.5,-180 172.5,-180 172.5,-180 166.5,-180 160.5,-174 160.5,-168 160.5,-168 160.5,-156 160.5,-156 160.5,-150 166.5,-144 172.5,-144 172.5,-144 291.5,-144 291.5,-144 297.5,-144 303.5,-150 303.5,-156 303.5,-156 303.5,-168 303.5,-168 303.5,-174 297.5,-180 291.5,-180"/>
<text text-anchor="middle" x="232" y="-159.5" font-family="sans" font-size="10.00">compute_barcode_escape</text>
</g>
<!-- 2&#45;&gt;3 -->
<g id="edge6" class="edge">
<title>2&#45;&gt;3</title>
<path fill="none" stroke="grey" stroke-width="2" d="M188.34,-215.7C195.29,-207.3 203.77,-197.07 211.4,-187.86"/>
<polygon fill="grey" stroke="grey" stroke-width="2" points="214.14,-190.04 217.83,-180.1 208.75,-185.57 214.14,-190.04"/>
</g>
<!-- 3&#45;&gt;0 -->
<g id="edge2" class="edge">
<title>3&#45;&gt;0</title>
<path fill="none" stroke="grey" stroke-width="2" d="M210.72,-143.95C200.23,-134.44 188.31,-121.76 181,-108 170.78,-88.75 166.06,-64.41 163.87,-46.05"/>
<polygon fill="grey" stroke="grey" stroke-width="2" points="167.35,-45.61 162.86,-36.01 160.38,-46.32 167.35,-45.61"/>
</g>
<!-- 4 -->
<g id="node5" class="node">
<title>4</title>
<path fill="none" stroke="#59d856" stroke-width="2" d="M277.5,-108C277.5,-108 202.5,-108 202.5,-108 196.5,-108 190.5,-102 190.5,-96 190.5,-96 190.5,-84 190.5,-84 190.5,-78 196.5,-72 202.5,-72 202.5,-72 277.5,-72 277.5,-72 283.5,-72 289.5,-78 289.5,-84 289.5,-84 289.5,-96 289.5,-96 289.5,-102 283.5,-108 277.5,-108"/>
<text text-anchor="middle" x="240" y="-87.5" font-family="sans" font-size="10.00">homolog_escape</text>
</g>
<!-- 3&#45;&gt;4 -->
<g id="edge7" class="edge">
<title>3&#45;&gt;4</title>
<path fill="none" stroke="grey" stroke-width="2" d="M233.98,-143.7C234.86,-135.98 235.92,-126.71 236.9,-118.11"/>
<polygon fill="grey" stroke="grey" stroke-width="2" points="240.39,-118.44 238.05,-108.1 233.43,-117.64 240.39,-118.44"/>
</g>
<!-- 5 -->
<g id="node6" class="node">
<title>5</title>
<path fill="none" stroke="#d8ac56" stroke-width="2" d="M384.5,-108C384.5,-108 319.5,-108 319.5,-108 313.5,-108 307.5,-102 307.5,-96 307.5,-96 307.5,-84 307.5,-84 307.5,-78 313.5,-72 319.5,-72 319.5,-72 384.5,-72 384.5,-72 390.5,-72 396.5,-78 396.5,-84 396.5,-84 396.5,-96 396.5,-96 396.5,-102 390.5,-108 384.5,-108"/>
<text text-anchor="middle" x="352" y="-87.5" font-family="sans" font-size="10.00">homolog_EC50</text>
</g>
<!-- 3&#45;&gt;5 -->
<g id="edge8" class="edge">
<title>3&#45;&gt;5</title>
<path fill="none" stroke="grey" stroke-width="2" d="M261.36,-143.88C277.05,-134.72 296.56,-123.34 313.45,-113.48"/>
<polygon fill="grey" stroke="grey" stroke-width="2" points="315.66,-116.25 322.53,-108.19 312.13,-110.21 315.66,-116.25"/>
</g>
<!-- 4&#45;&gt;0 -->
<g id="edge3" class="edge">
<title>4&#45;&gt;0</title>
<path fill="none" stroke="grey" stroke-width="2" d="M220.72,-71.7C211.08,-63.05 199.27,-52.45 188.77,-43.03"/>
<polygon fill="grey" stroke="grey" stroke-width="2" points="190.84,-40.18 181.06,-36.1 186.16,-45.39 190.84,-40.18"/>
</g>
<!-- 5&#45;&gt;0 -->
<g id="edge1" class="edge">
<title>5&#45;&gt;0</title>
<path fill="none" stroke="grey" stroke-width="2" d="M307.45,-72.59C280.65,-62.71 246.3,-50.06 217.71,-39.52"/>
<polygon fill="grey" stroke="grey" stroke-width="2" points="218.84,-36.21 208.25,-36.04 216.42,-42.78 218.84,-36.21"/>
</g>
</g>
</svg>
